# xmcd
#
# Track frame offsets:
#	150
#	12620
#	24557
#	42600
#	57882
#	70472
#	79195
#	99800
#	116442
#	129125
#	143645
#	156412
#	176910
#	195155
#
# Disc length: 2715 seconds
#
# Revision: 0
# Processed by: cddbd v1.5PL3 Copyright (c) Steve Scherf et al.
# Submitted via: audiograbber 1.83.01
#
DISCID=b90a990e
DTITLE=MHS - Zit je dar
DYEAR=1995
DGENRE=Bluegrass
TTITLE0=Dripak
TTITLE1=Zmuchlana
TTITLE2=Ledy
TTITLE3=Oria
TTITLE4=Popel z cigaret
TTITLE5=Slava a pad
TTITLE6=Jesus he knows me
TTITLE7=Zit je prilis krasna vec
TTITLE8=Proc ?
TTITLE9=Prochazím cestou tajnou
TTITLE10=Teach your children
TTITLE11=Zemetreseni
TTITLE12=O tobe
TTITLE13=Tak jsem to zmak
EXTD=
EXTT0=
EXTT1=
EXTT2=
EXTT3=
EXTT4=
EXTT5=
EXTT6=
EXTT7=
EXTT8=
EXTT9=
EXTT10=
EXTT11=
EXTT12=
EXTT13=
PLAYORDER=
